<svg xmlns="http://www.w3.org/2000/svg" width="15" height="8" viewBox="0 0 15 8" fill="none">
<path d="M9.62018 6.90005L14.2102 2.31005C14.3964 2.12268 14.501 1.86923 14.501 1.60505C14.501 1.34086 14.3964 1.08741 14.2102 0.900046C14.1172 0.806318 14.0066 0.731924 13.8848 0.681155C13.7629 0.630387 13.6322 0.604248 13.5002 0.604248C13.3682 0.604248 13.2375 0.630387 13.1156 0.681155C12.9937 0.731924 12.8831 0.806318 12.7902 0.900046L8.21018 5.50005C8.11722 5.59378 8.00662 5.66817 7.88476 5.71894C7.7629 5.76971 7.63219 5.79585 7.50018 5.79585C7.36817 5.79585 7.23747 5.76971 7.11561 5.71894C6.99375 5.66817 6.88315 5.59378 6.79018 5.50005L2.21018 0.900046C2.0232 0.711743 1.76908 0.605428 1.50372 0.60449C1.23835 0.603553 0.983486 0.70807 0.795182 0.895047C0.606879 1.08202 0.500563 1.33615 0.499625 1.60151C0.498688 1.86687 0.603206 2.12174 0.790183 2.31005L5.38018 6.90005C5.94268 7.46185 6.70518 7.77741 7.50018 7.77741C8.29519 7.77741 9.05768 7.46185 9.62018 6.90005Z" fill="#D3D3D3"/>
</svg>