    <svg xmlns="http://www.w3.org/2000/svg" width="23" height="77" viewBox="0 0 23 77" fill="none">
                                        <mask id="path-1-outside-1_536_111" maskUnits="userSpaceOnUse" x="0" y="0" width="23" height="77" fill="black">
                                        <rect fill="white" width="23" height="77"/>
                                        <path d="M22.0249 0.519999V76H14.2729V15.106L1.01285 15.208V10.618L3.56285 10.006C6.89485 9.122 9.54685 8.034 11.5189 6.742C13.4909 5.45 15.2929 3.716 16.9249 1.54L17.6389 0.519999H22.0249Z"/>
                                        </mask>
                                        <path d="M22.0249 0.519999H22.5249V0.0199986H22.0249V0.519999ZM22.0249 76V76.5H22.5249V76H22.0249ZM14.2729 76H13.7729V76.5H14.2729V76ZM14.2729 15.106H14.7729V14.6021L14.269 14.606L14.2729 15.106ZM1.01285 15.208H0.512852V15.7119L1.0167 15.708L1.01285 15.208ZM1.01285 10.618L0.896166 10.1318L0.512852 10.2238V10.618H1.01285ZM3.56285 10.006L3.67957 10.4923L3.69107 10.4893L3.56285 10.006ZM16.9249 1.54L17.3249 1.84L17.3298 1.83344L17.3345 1.82673L16.9249 1.54ZM17.6389 0.519999V0.0199986H17.3785L17.2292 0.233267L17.6389 0.519999ZM22.0249 0.519999H21.5249V76H22.0249H22.5249V0.519999H22.0249ZM22.0249 76V75.5H14.2729V76V76.5H22.0249V76ZM14.2729 76H14.7729V15.106H14.2729H13.7729V76H14.2729ZM14.2729 15.106L14.269 14.606L1.00901 14.708L1.01285 15.208L1.0167 15.708L14.2767 15.606L14.2729 15.106ZM1.01285 15.208H1.51285V10.618H1.01285H0.512852V15.208H1.01285ZM1.01285 10.618L1.12954 11.1042L3.67954 10.4922L3.56285 10.006L3.44617 9.51981L0.896166 10.1318L1.01285 10.618ZM3.56285 10.006L3.69107 10.4893C7.05317 9.59729 9.76053 8.49176 11.7929 7.16023L11.5189 6.742L11.2448 6.32377C9.33317 7.57624 6.73653 8.6467 3.43463 9.52272L3.56285 10.006ZM11.5189 6.742L11.7929 7.16023C13.8202 5.83195 15.6633 4.0554 17.3249 1.84L16.9249 1.54L16.5249 1.24C14.9224 3.3766 13.1615 5.06805 11.2448 6.32377L11.5189 6.742ZM16.9249 1.54L17.3345 1.82673L18.0485 0.80673L17.6389 0.519999L17.2292 0.233267L16.5152 1.25327L16.9249 1.54ZM17.6389 0.519999V1.02H22.0249V0.519999V0.0199986H17.6389V0.519999Z" fill="url(#paint0_linear_536_111)" mask="url(#path-1-outside-1_536_111)"/>
                                        <defs>
                                        <linearGradient id="paint0_linear_536_111" x1="15" y1="16.7871" x2="15" y2="88.3119" gradientUnits="userSpaceOnUse">
                                        <stop offset="0.285714" stop-color="white"/>
                                        <stop offset="1" stop-opacity="0"/>
                                        </linearGradient>
                                        </defs>
                                        </svg>