         <svg xmlns="http://www.w3.org/2000/svg" width="53" height="78" viewBox="0 0 53 78" fill="none">
                                        <mask id="path-1-outside-1_572_127" maskUnits="userSpaceOnUse" x="0" y="0" width="53" height="78" fill="black">
                                        <rect fill="white" width="53" height="78"/>
                                        <path d="M1.57578 77V71.39L19.0178 54.764C23.3698 50.684 27.2798 47.012 30.7478 43.748C34.2158 40.416 36.9358 37.152 38.9078 33.956C40.9478 30.76 41.9678 27.258 41.9678 23.45C41.9678 20.05 41.1858 17.194 39.6218 14.882C38.0578 12.502 36.0178 10.734 33.5018 9.578C31.0538 8.354 28.5038 7.742 25.8518 7.742C22.3838 7.742 19.5278 8.422 17.2838 9.782C15.1078 11.142 13.4078 12.808 12.1838 14.78C11.0278 16.752 10.2118 18.69 9.73578 20.594C9.25978 22.498 9.02178 24.028 9.02178 25.184H1.37178C1.37178 24.096 1.54178 22.566 1.88178 20.594C2.28978 18.622 3.00378 16.514 4.02378 14.27C5.04378 11.958 6.43778 9.748 8.20578 7.64C10.0418 5.532 12.3878 3.832 15.2438 2.54C18.1678 1.18 21.7038 0.499994 25.8518 0.499994C30.0678 0.499994 33.9778 1.38399 37.5818 3.152C41.2538 4.92 44.2118 7.504 46.4558 10.904C48.6998 14.236 49.8218 18.35 49.8218 23.246C49.8218 27.802 48.6998 31.984 46.4558 35.792C44.2118 39.532 41.2198 43.17 37.4798 46.706C33.8078 50.242 29.8298 54.05 25.5458 58.13L13.2038 69.758H51.5558V77H1.57578Z"/>
                                        </mask>
                                        <path d="M1.57578 77H1.07578V77.5H1.57578V77ZM1.57578 71.39L1.2308 71.0281L1.07578 71.1758V71.39H1.57578ZM19.0178 54.764L18.6758 54.3992L18.6728 54.4021L19.0178 54.764ZM30.7478 43.748L31.0905 44.1121L31.0942 44.1086L30.7478 43.748ZM38.9078 33.956L38.4863 33.6869L38.4823 33.6934L38.9078 33.956ZM39.6218 14.882L39.2039 15.1566L39.2076 15.1622L39.6218 14.882ZM33.5018 9.578L33.2782 10.0252L33.2855 10.0289L33.293 10.0323L33.5018 9.578ZM17.2838 9.782L17.0246 9.35435L17.0188 9.358L17.2838 9.782ZM12.1838 14.78L11.7588 14.5162L11.7524 14.5271L12.1838 14.78ZM9.73578 20.594L9.25071 20.4727L9.73578 20.594ZM9.02178 25.184V25.684H9.52178V25.184H9.02178ZM1.37178 25.184H0.871782V25.684H1.37178V25.184ZM1.88178 20.594L1.39215 20.4927L1.39046 20.5008L1.38905 20.509L1.88178 20.594ZM4.02378 14.27L4.47899 14.4769L4.48124 14.4718L4.02378 14.27ZM8.20578 7.64L7.82868 7.31155L7.82269 7.31869L8.20578 7.64ZM15.2438 2.54L15.4499 2.99558L15.4546 2.99336L15.2438 2.54ZM37.5818 3.152L37.3616 3.6009L37.3649 3.6025L37.5818 3.152ZM46.4558 10.904L46.0385 11.1794L46.0411 11.1833L46.4558 10.904ZM46.4558 35.792L46.8845 36.0493L46.8866 36.0458L46.4558 35.792ZM37.4798 46.706L37.1363 46.3427L37.133 46.3458L37.4798 46.706ZM25.5458 58.13L25.8887 58.4939L25.8906 58.4921L25.5458 58.13ZM13.2038 69.758L12.8609 69.3941L11.9439 70.258H13.2038V69.758ZM51.5558 69.758H52.0558V69.258H51.5558V69.758ZM51.5558 77V77.5H52.0558V77H51.5558ZM1.57578 77H2.07578V71.39H1.57578H1.07578V77H1.57578ZM1.57578 71.39L1.92077 71.7519L19.3628 55.1259L19.0178 54.764L18.6728 54.4021L1.2308 71.0281L1.57578 71.39ZM19.0178 54.764L19.3598 55.1288C23.7119 51.0486 27.6222 47.3764 31.0905 44.1121L30.7478 43.748L30.4051 43.3839C26.9374 46.6476 23.0276 50.3194 18.6758 54.3992L19.0178 54.764ZM30.7478 43.748L31.0942 44.1086C34.5846 40.7551 37.334 37.4588 39.3333 34.2186L38.9078 33.956L38.4823 33.6934C36.5376 36.8452 33.847 40.0769 30.4014 43.3874L30.7478 43.748ZM38.9078 33.956L39.3292 34.225C41.4208 30.9483 42.4678 27.3529 42.4678 23.45H41.9678H41.4678C41.4678 27.1631 40.4748 30.5717 38.4863 33.687L38.9078 33.956ZM41.9678 23.45H42.4678C42.4678 19.9722 41.6671 17.0131 40.0359 14.6018L39.6218 14.882L39.2076 15.1622C40.7045 17.3749 41.4678 20.1278 41.4678 23.45H41.9678ZM39.6218 14.882L40.0396 14.6074C38.4257 12.1514 36.3142 10.32 33.7105 9.12366L33.5018 9.578L33.293 10.0323C35.7213 11.148 37.6899 12.8526 39.2039 15.1566L39.6218 14.882ZM33.5018 9.578L33.7254 9.13079C31.2103 7.87322 28.5839 7.242 25.8518 7.242V7.742V8.242C28.4236 8.242 30.8973 8.83478 33.2782 10.0252L33.5018 9.578ZM25.8518 7.742V7.242C22.321 7.242 19.3681 7.93412 17.0246 9.3544L17.2838 9.782L17.5429 10.2096C19.6875 8.90987 22.4465 8.242 25.8518 8.242V7.742ZM17.2838 9.782L17.0188 9.358C14.7849 10.7542 13.0274 12.4728 11.759 14.5163L12.1838 14.78L12.6086 15.0437C13.7882 13.1432 15.4307 11.5298 17.5488 10.206L17.2838 9.782ZM12.1838 14.78L11.7524 14.5271C10.5762 16.5336 9.73998 18.5157 9.25071 20.4727L9.73578 20.594L10.2209 20.7153C10.6836 18.8643 11.4794 16.9704 12.6151 15.0329L12.1838 14.78ZM9.73578 20.594L9.25071 20.4727C8.77065 22.393 8.52178 23.9685 8.52178 25.184H9.02178H9.52178C9.52178 24.0875 9.74891 22.603 10.2209 20.7153L9.73578 20.594ZM9.02178 25.184V24.684H1.37178V25.184V25.684H9.02178V25.184ZM1.37178 25.184H1.87178C1.87178 24.1389 2.03605 22.642 2.37451 20.679L1.88178 20.594L1.38905 20.509C1.04751 22.49 0.871782 24.0531 0.871782 25.184H1.37178ZM1.88178 20.594L2.37141 20.6953C2.77043 18.7667 3.47105 16.6943 4.47897 14.4769L4.02378 14.27L3.5686 14.0631C2.53651 16.3337 1.80913 18.4773 1.39215 20.4927L1.88178 20.594ZM4.02378 14.27L4.48124 14.4718C5.4806 12.2066 6.84851 10.0364 8.58888 7.9613L8.20578 7.64L7.82269 7.31869C6.02706 9.45963 4.60696 11.7094 3.56632 14.0682L4.02378 14.27ZM8.20578 7.64L8.58282 7.96839C10.3662 5.9208 12.6514 4.26155 15.4499 2.99555L15.2438 2.54L15.0377 2.08444C12.1242 3.40245 9.71736 5.1432 7.82874 7.31161L8.20578 7.64ZM15.2438 2.54L15.4546 2.99336C18.2965 1.67155 21.7565 0.999994 25.8518 0.999994V0.499994V-5.72205e-06C21.651 -5.72205e-06 18.039 0.68844 15.0329 2.08664L15.2438 2.54ZM25.8518 0.499994V0.999994C29.9954 0.999994 33.8296 1.86821 37.3616 3.60089L37.5818 3.152L37.802 2.7031C34.126 0.899784 30.1402 -5.72205e-06 25.8518 -5.72205e-06V0.499994ZM37.5818 3.152L37.3649 3.6025C40.9555 5.33133 43.8443 7.85484 46.0385 11.1794L46.4558 10.904L46.8731 10.6286C44.5793 7.15315 41.552 4.50867 37.7987 2.7015L37.5818 3.152ZM46.4558 10.904L46.0411 11.1833C48.2183 14.4162 49.3218 18.4275 49.3218 23.246H49.8218H50.3218C50.3218 18.2725 49.1812 14.0558 46.8705 10.6247L46.4558 10.904ZM49.8218 23.246H49.3218C49.3218 27.7156 48.2223 31.8095 46.025 35.5382L46.4558 35.792L46.8866 36.0458C49.1773 32.1585 50.3218 27.8884 50.3218 23.246H49.8218ZM46.4558 35.792L46.027 35.5348C43.8102 39.2294 40.8489 42.8325 37.1363 46.3427L37.4798 46.706L37.8233 47.0693C41.5906 43.5075 44.6133 39.8346 46.8845 36.0492L46.4558 35.792ZM37.4798 46.706L37.133 46.3458C33.4617 49.8811 29.4844 53.6885 25.201 57.7679L25.5458 58.13L25.8906 58.4921C30.1752 54.4115 34.1538 50.6029 37.8266 47.0662L37.4798 46.706ZM25.5458 58.13L25.2029 57.7661L12.8609 69.3941L13.2038 69.758L13.5467 70.1219L25.8887 58.4939L25.5458 58.13ZM13.2038 69.758V70.258H51.5558V69.758V69.258H13.2038V69.758ZM51.5558 69.758H51.0558V77H51.5558H52.0558V69.758H51.5558ZM51.5558 77V76.5H1.57578V77V77.5H51.5558V77Z" fill="url(#paint0_linear_572_127)" mask="url(#path-1-outside-1_572_127)"/>
                                        <defs>
                                        <linearGradient id="paint0_linear_572_127" x1="26" y1="17.7871" x2="26" y2="89.3119" gradientUnits="userSpaceOnUse">
                                        <stop offset="0.285714" stop-color="white"/>
                                        <stop offset="1" stop-opacity="0"/>
                                        </linearGradient>
                                        </defs>
                                        </svg>