<svg xmlns="http://www.w3.org/2000/svg" width="60" height="77" viewBox="0 0 60 77" fill="none">
<mask id="path-1-outside-1_572_155" maskUnits="userSpaceOnUse" x="0" y="0" width="60" height="77" fill="black">
<rect fill="white" width="60" height="77"/>
<path d="M37.6612 76V57.742H0.533156V50.5L36.1312 0.519999H45.5152V50.908H58.6732V57.844L45.5152 57.742V76H37.6612ZM8.79516 50.908H37.6612V10.21L8.79516 50.908Z"/>
</mask>
<path d="M37.6612 76H37.1612V76.5H37.6612V76ZM37.6612 57.742H38.1612V57.242H37.6612V57.742ZM0.533156 57.742H0.0331564V58.242H0.533156V57.742ZM0.533156 50.5L0.125897 50.2099L0.0331564 50.3401V50.5H0.533156ZM36.1312 0.519999V0.0199986H35.8734L35.7239 0.229931L36.1312 0.519999ZM45.5152 0.519999H46.0152V0.0199986H45.5152V0.519999ZM45.5152 50.908H45.0152V51.408H45.5152V50.908ZM58.6732 50.908H59.1732V50.408H58.6732V50.908ZM58.6732 57.844L58.6693 58.344L59.1732 58.3479V57.844H58.6732ZM45.5152 57.742L45.519 57.242L45.0152 57.2381V57.742H45.5152ZM45.5152 76V76.5H46.0152V76H45.5152ZM8.79516 50.908L8.38733 50.6187L7.82752 51.408H8.79516V50.908ZM37.6612 50.908V51.408H38.1612V50.908H37.6612ZM37.6612 10.21H38.1612V8.64079L37.2533 9.92073L37.6612 10.21ZM37.6612 76H38.1612V57.742H37.6612H37.1612V76H37.6612ZM37.6612 57.742V57.242H0.533156V57.742V58.242H37.6612V57.742ZM0.533156 57.742H1.03316V50.5H0.533156H0.0331564V57.742H0.533156ZM0.533156 50.5L0.940416 50.7901L36.5384 0.810068L36.1312 0.519999L35.7239 0.229931L0.125897 50.2099L0.533156 50.5ZM36.1312 0.519999V1.02H45.5152V0.519999V0.0199986H36.1312V0.519999ZM45.5152 0.519999H45.0152V50.908H45.5152H46.0152V0.519999H45.5152ZM45.5152 50.908V51.408H58.6732V50.908V50.408H45.5152V50.908ZM58.6732 50.908H58.1732V57.844H58.6732H59.1732V50.908H58.6732ZM58.6732 57.844L58.677 57.344L45.519 57.242L45.5152 57.742L45.5113 58.242L58.6693 58.344L58.6732 57.844ZM45.5152 57.742H45.0152V76H45.5152H46.0152V57.742H45.5152ZM45.5152 76V75.5H37.6612V76V76.5H45.5152V76ZM8.79516 50.908V51.408H37.6612V50.908V50.408H8.79516V50.908ZM37.6612 50.908H38.1612V10.21H37.6612H37.1612V50.908H37.6612ZM37.6612 10.21L37.2533 9.92073L8.38733 50.6187L8.79516 50.908L9.20299 51.1973L38.069 10.4993L37.6612 10.21Z" fill="url(#paint0_linear_572_155)" mask="url(#path-1-outside-1_572_155)"/>
<defs>
<linearGradient id="paint0_linear_572_155" x1="30" y1="16.7871" x2="30" y2="88.3119" gradientUnits="userSpaceOnUse">
<stop offset="0.285714" stop-color="white"/>
<stop offset="1" stop-opacity="0"/>
</linearGradient>
</defs>
</svg>