 <svg xmlns="http://www.w3.org/2000/svg" width="53" height="79" viewBox="0 0 53 79" fill="none">
                                        <mask id="path-1-outside-1_572_141" maskUnits="userSpaceOnUse" x="0" y="0" width="53" height="79" fill="black">
                                        <rect fill="white" width="53" height="79"/>
                                        <path d="M26.7215 78.02C22.3695 78.02 18.2555 77.17 14.3795 75.47C10.5035 73.77 7.37549 71.186 4.99549 67.718C2.61549 64.25 1.42549 59.898 1.42549 54.662H8.97349C8.97349 58.402 9.82349 61.496 11.5235 63.944C13.2235 66.392 15.4335 68.228 18.1535 69.452C20.8735 70.608 23.7295 71.186 26.7215 71.186C29.8495 71.186 32.7395 70.574 35.3915 69.35C38.0435 68.126 40.1855 66.358 41.8175 64.046C43.4495 61.666 44.2655 58.776 44.2655 55.376C44.2655 50.956 42.8375 47.488 39.9815 44.972C37.1255 42.388 33.2835 41.096 28.4555 41.096H18.3575V34.772H28.4555C32.4675 34.772 35.8675 33.616 38.6555 31.304C41.5115 28.992 42.9395 25.762 42.9395 21.614C42.9395 18.622 42.1575 16.072 40.5935 13.964C39.0975 11.788 37.1255 10.122 34.6775 8.96599C32.2295 7.81 29.5775 7.232 26.7215 7.232C24.0015 7.232 21.3835 7.844 18.8675 9.068C16.3515 10.224 14.2775 12.06 12.6455 14.576C11.0135 17.024 10.1975 20.118 10.1975 23.858H2.85349C2.85349 18.622 4.00949 14.27 6.32149 10.802C8.70149 7.334 11.7275 4.75 15.3995 3.05C19.0715 1.35 22.9135 0.499994 26.9255 0.499994C30.9375 0.499994 34.7455 1.316 38.3495 2.948C41.9535 4.58 44.8775 6.926 47.1215 9.986C49.4335 13.046 50.5895 16.718 50.5895 21.002C50.5895 24.946 49.6035 28.346 47.6315 31.202C45.6595 34.058 42.9735 36.166 39.5735 37.526V37.934C43.3135 39.226 46.3395 41.402 48.6515 44.462C50.9635 47.522 52.1195 51.262 52.1195 55.682C52.1195 60.306 50.9295 64.318 48.5495 67.718C46.2375 71.05 43.1435 73.6 39.2675 75.368C35.3915 77.136 31.2095 78.02 26.7215 78.02Z"/>
                                        </mask>
                                        <path d="M14.3795 75.47L14.1787 75.9279L14.3795 75.47ZM4.99549 67.718L4.58324 68.0009L4.99549 67.718ZM1.42549 54.662V54.162H0.925493V54.662H1.42549ZM8.97349 54.662H9.47349V54.162H8.97349V54.662ZM18.1535 69.452L17.9483 69.9081L17.9579 69.9122L18.1535 69.452ZM41.8175 64.046L42.226 64.3344L42.2299 64.3288L41.8175 64.046ZM39.9815 44.972L39.646 45.3428L39.651 45.3472L39.9815 44.972ZM18.3575 41.096H17.8575V41.596H18.3575V41.096ZM18.3575 34.772V34.272H17.8575V34.772H18.3575ZM38.6555 31.304L38.3409 30.9153L38.3363 30.9191L38.6555 31.304ZM40.5935 13.964L40.1815 14.2473L40.1866 14.2547L40.1919 14.2619L40.5935 13.964ZM34.6775 8.966L34.891 8.51387L34.6775 8.966ZM18.8675 9.068L19.0763 9.52245L19.0862 9.51762L18.8675 9.068ZM12.6455 14.576L13.0616 14.8534L13.065 14.8481L12.6455 14.576ZM10.1975 23.858V24.358H10.6975V23.858H10.1975ZM2.85349 23.858H2.35349V24.358H2.85349V23.858ZM6.32149 10.802L5.9092 10.519L5.90547 10.5246L6.32149 10.802ZM15.3995 3.05L15.6096 3.50373H15.6096L15.3995 3.05ZM38.3495 2.948L38.1432 3.40348L38.3495 2.948ZM47.1215 9.986L46.7183 10.2817L46.7226 10.2874L47.1215 9.986ZM47.6315 31.202L48.0429 31.4861L47.6315 31.202ZM39.5735 37.526L39.3878 37.0618L39.0735 37.1875V37.526H39.5735ZM39.5735 37.934H39.0735V38.2903L39.4102 38.4066L39.5735 37.934ZM48.6515 44.462L48.2526 44.7634L48.6515 44.462ZM48.5495 67.718L48.1399 67.4313L48.1387 67.433L48.5495 67.718ZM39.2675 75.368L39.475 75.8229L39.2675 75.368ZM26.7215 78.02V77.52C22.4366 77.52 18.3912 76.6835 14.5803 75.0121L14.3795 75.47L14.1787 75.9279C18.1198 77.6565 22.3024 78.52 26.7215 78.52V78.02ZM14.3795 75.47L14.5803 75.0121C10.7892 73.3493 7.73462 70.8257 5.40775 67.4351L4.99549 67.718L4.58324 68.0009C7.01636 71.5463 10.2178 74.1907 14.1787 75.9279L14.3795 75.47ZM4.99549 67.718L5.40775 67.4351C3.09753 64.0688 1.92549 59.8219 1.92549 54.662H1.42549H0.925493C0.925493 59.9741 2.13346 64.4312 4.58324 68.0009L4.99549 67.718ZM1.42549 54.662V55.162H8.97349V54.662V54.162H1.42549V54.662ZM8.97349 54.662H8.47349C8.47349 58.4778 9.34136 61.6783 11.1128 64.2292L11.5235 63.944L11.9342 63.6588C10.3056 61.3137 9.47349 58.3262 9.47349 54.662H8.97349ZM11.5235 63.944L11.1128 64.2292C12.8646 66.7518 15.1457 68.6468 17.9483 69.908L18.1535 69.452L18.3587 68.996C15.7213 67.8092 13.5824 66.0322 11.9342 63.6588L11.5235 63.944ZM18.1535 69.452L17.9579 69.9122C20.7406 71.0948 23.6631 71.686 26.7215 71.686V71.186V70.686C23.7958 70.686 21.0064 70.1212 18.3491 68.9918L18.1535 69.452ZM26.7215 71.186V71.686C29.9166 71.686 32.8787 71.0604 35.601 69.804L35.3915 69.35L35.182 68.896C32.6002 70.0876 29.7824 70.686 26.7215 70.686V71.186ZM35.3915 69.35L35.601 69.804C38.3301 68.5444 40.5417 66.7204 42.226 64.3343L41.8175 64.046L41.409 63.7577C39.8293 65.9956 37.7569 67.7076 35.182 68.896L35.3915 69.35ZM41.8175 64.046L42.2299 64.3288C43.9285 61.8515 44.7655 58.8585 44.7655 55.376H44.2655H43.7655C43.7655 58.6935 42.9705 61.4805 41.4051 63.7632L41.8175 64.046ZM44.2655 55.376H44.7655C44.7655 50.838 43.2936 47.2234 40.312 44.5968L39.9815 44.972L39.651 45.3472C42.3814 47.7526 43.7655 51.074 43.7655 55.376H44.2655ZM39.9815 44.972L40.317 44.6012C37.3474 41.9145 33.3748 40.596 28.4555 40.596V41.096V41.596C33.1922 41.596 36.9036 42.8615 39.646 45.3428L39.9815 44.972ZM28.4555 41.096V40.596H18.3575V41.096V41.596H28.4555V41.096ZM18.3575 41.096H18.8575V34.772H18.3575H17.8575V41.096H18.3575ZM18.3575 34.772V35.272H28.4555V34.772V34.272H18.3575V34.772ZM28.4555 34.772V35.272C32.5707 35.272 36.0871 34.0834 38.9747 31.6889L38.6555 31.304L38.3363 30.9191C35.6478 33.1486 32.3643 34.272 28.4555 34.272V34.772ZM38.6555 31.304L38.9701 31.6926C41.9594 29.2727 43.4395 25.8909 43.4395 21.614H42.9395H42.4395C42.4395 25.6331 41.0636 28.7113 38.3409 30.9154L38.6555 31.304ZM42.9395 21.614H43.4395C43.4395 18.5304 42.6317 15.872 40.995 13.6661L40.5935 13.964L40.1919 14.2619C41.6833 16.272 42.4395 18.7136 42.4395 21.614H42.9395ZM40.5935 13.964L41.0055 13.6807C39.4581 11.43 37.4168 9.70662 34.891 8.51387L34.6775 8.966L34.464 9.41812C36.8342 10.5374 38.7369 12.146 40.1815 14.2473L40.5935 13.964ZM34.6775 8.966L34.891 8.51387C32.3726 7.32462 29.6472 6.732 26.7215 6.732V7.232V7.732C29.5078 7.732 32.0864 8.29537 34.464 9.41812L34.6775 8.966ZM26.7215 7.232V6.732C23.9235 6.732 21.2309 7.36221 18.6488 8.61838L18.8675 9.068L19.0862 9.51762C21.5361 8.32579 24.0795 7.732 26.7215 7.732V7.232ZM18.8675 9.068L18.6587 8.61366C16.0495 9.8125 13.9051 11.7153 12.226 14.3039L12.6455 14.576L13.065 14.8481C14.6499 12.4047 16.6535 10.6355 19.0762 9.52234L18.8675 9.068ZM12.6455 14.576L12.2295 14.2986C10.5296 16.8485 9.69749 20.046 9.69749 23.858H10.1975H10.6975C10.6975 20.19 11.4974 17.1995 13.0615 14.8533L12.6455 14.576ZM10.1975 23.858V23.358H2.85349V23.858V24.358H10.1975V23.858ZM2.85349 23.858H3.35349C3.35349 18.6954 4.4928 14.4464 6.73752 11.0793L6.32149 10.802L5.90547 10.5246C3.52619 14.0936 2.35349 18.5486 2.35349 23.858H2.85349ZM6.32149 10.802L6.73375 11.0849C9.06502 7.68793 12.0224 5.16446 15.6096 3.50373L15.3995 3.05L15.1894 2.59626C11.4326 4.33553 8.33797 6.98006 5.90924 10.5191L6.32149 10.802ZM15.3995 3.05L15.6096 3.50373C19.2163 1.83394 22.9867 0.999994 26.9255 0.999994V0.499994V-5.72205e-06C22.8403 -5.72205e-06 18.9267 0.866053 15.1894 2.59626L15.3995 3.05ZM26.9255 0.499994V0.999994C30.8674 0.999994 34.605 1.80124 38.1432 3.40348L38.3495 2.948L38.5557 2.49252C34.886 0.830751 31.0076 -5.72205e-06 26.9255 -5.72205e-06V0.499994ZM38.3495 2.948L38.1432 3.40348C41.6724 5.00159 44.5273 7.29399 46.7183 10.2817L47.1215 9.986L47.5247 9.69032C45.2277 6.558 42.2346 4.1584 38.5557 2.49252L38.3495 2.948ZM47.1215 9.986L46.7226 10.2874C48.9613 13.2505 50.0895 16.8134 50.0895 21.002H50.5895H51.0895C51.0895 16.6226 49.9056 12.8415 47.5204 9.68458L47.1215 9.986ZM50.5895 21.002H50.0895C50.0895 24.8588 49.1267 28.1565 47.22 30.9179L47.6315 31.202L48.0429 31.4861C50.0802 28.5355 51.0895 25.0332 51.0895 21.002H50.5895ZM47.6315 31.202L47.22 30.9179C45.3071 33.6884 42.7018 35.7362 39.3878 37.0618L39.5735 37.526L39.7592 37.9902C43.2452 36.5958 46.0119 34.4276 48.0429 31.4861L47.6315 31.202ZM39.5735 37.526H39.0735V37.934H39.5735H40.0735V37.526H39.5735ZM39.5735 37.934L39.4102 38.4066C43.0596 39.6673 46.0024 41.7852 48.2526 44.7634L48.6515 44.462L49.0504 44.1606C46.6766 41.0188 43.5674 38.7847 39.7368 37.4614L39.5735 37.934ZM48.6515 44.462L48.2526 44.7634C50.4893 47.7238 51.6195 51.3535 51.6195 55.682H52.1195H52.6195C52.6195 51.1705 51.4377 47.3202 49.0504 44.1606L48.6515 44.462ZM52.1195 55.682H51.6195C51.6195 60.2156 50.4544 64.1248 48.1399 67.4313L48.5495 67.718L48.9591 68.0047C51.4046 64.5112 52.6195 60.3964 52.6195 55.682H52.1195ZM48.5495 67.718L48.1387 67.433C45.8806 70.6873 42.8585 73.1804 39.06 74.9131L39.2675 75.368L39.475 75.8229C43.4285 74.0196 46.5944 71.4127 48.9603 68.003L48.5495 67.718ZM39.2675 75.368L39.06 74.9131C35.2526 76.6498 31.1418 77.52 26.7215 77.52V78.02V78.52C31.2772 78.52 35.5304 77.6222 39.475 75.8229L39.2675 75.368Z" fill="url(#paint0_linear_572_141)" mask="url(#path-1-outside-1_572_141)"/>
                                        <defs>
                                        <linearGradient id="paint0_linear_572_141" x1="27" y1="17.7871" x2="27" y2="89.3119" gradientUnits="userSpaceOnUse">
                                        <stop offset="0.285714" stop-color="white"/>
                                        <stop offset="1" stop-opacity="0"/>
                                        </linearGradient>
                                        </defs>
                                        </svg>