<svg xmlns="http://www.w3.org/2000/svg" width="14" height="8" viewBox="0 0 14 8" fill="none">
<path d="M9.12 6.89999L13.71 2.30999C13.8963 2.12262 14.0008 1.86917 14.0008 1.60499C14.0008 1.3408 13.8963 1.08735 13.71 0.899985C13.617 0.806257 13.5064 0.731863 13.3846 0.681094C13.2627 0.630325 13.132 0.604187 13 0.604187C12.868 0.604187 12.7373 0.630325 12.6154 0.681094C12.4936 0.731863 12.383 0.806257 12.29 0.899985L7.71 5.49999C7.61704 5.59371 7.50644 5.66811 7.38458 5.71888C7.26272 5.76965 7.13201 5.79578 7 5.79578C6.86799 5.79578 6.73728 5.76965 6.61542 5.71888C6.49356 5.66811 6.38296 5.59371 6.29 5.49999L1.71 0.899985C1.52302 0.711682 1.2689 0.605367 1.00354 0.604429C0.738172 0.603492 0.483303 0.708009 0.294999 0.894986C0.106696 1.08196 0.000379562 1.33609 -0.000557899 1.60145C-0.00149536 1.86681 0.103023 2.12168 0.29 2.30999L4.88 6.89999C5.4425 7.46179 6.205 7.77735 7 7.77735C7.795 7.77735 8.5575 7.46179 9.12 6.89999Z" fill="#D3D3D3"/>
</svg>