<svg xmlns="http://www.w3.org/2000/svg" width="16" height="17" viewBox="0 0 16 17" fill="none">
<g clip-path="url(#clip0_294_626)">
<path d="M15.3335 7.74039C15.1567 7.74039 14.9872 7.67015 14.8621 7.54513C14.7371 7.4201 14.6669 7.25053 14.6669 7.07372C14.6655 5.65967 14.1031 4.30393 13.1032 3.30405C12.1033 2.30416 10.7476 1.7418 9.33353 1.74039C9.15672 1.74039 8.98715 1.67015 8.86213 1.54513C8.7371 1.4201 8.66686 1.25053 8.66686 1.07372C8.66686 0.896913 8.7371 0.727343 8.86213 0.602319C8.98715 0.477295 9.15672 0.407057 9.33353 0.407057C11.101 0.408998 12.7956 1.112 14.0454 2.36182C15.2953 3.61164 15.9983 5.30621 16.0002 7.07372C16.0002 7.25053 15.93 7.4201 15.8049 7.54513C15.6799 7.67015 15.5103 7.74039 15.3335 7.74039ZM13.3335 7.07372C13.3335 6.01286 12.9121 4.99544 12.162 4.2453C11.4118 3.49515 10.3944 3.07372 9.33353 3.07372C9.15672 3.07372 8.98715 3.14396 8.86213 3.26899C8.7371 3.39401 8.66686 3.56358 8.66686 3.74039C8.66686 3.9172 8.7371 4.08677 8.86213 4.21179C8.98715 4.33682 9.15672 4.40706 9.33353 4.40706C10.0408 4.40706 10.7191 4.68801 11.2191 5.18811C11.7192 5.6882 12.0002 6.36648 12.0002 7.07372C12.0002 7.25053 12.0704 7.4201 12.1955 7.54513C12.3205 7.67015 12.4901 7.74039 12.6669 7.74039C12.8437 7.74039 13.0132 7.67015 13.1383 7.54513C13.2633 7.4201 13.3335 7.25053 13.3335 7.07372ZM14.7889 15.1831L15.3955 14.4837C15.7817 14.0963 15.9985 13.5717 15.9985 13.0247C15.9985 12.4778 15.7817 11.9531 15.3955 11.5657C15.3749 11.5451 13.7709 10.3111 13.7709 10.3111C13.3859 9.94461 12.8746 9.74056 12.3431 9.74131C11.8116 9.74205 11.3008 9.94753 10.9169 10.3151L9.6462 11.3857C8.60898 10.9565 7.66679 10.3265 6.87372 9.53207C6.08065 8.73763 5.45234 7.79435 5.02486 6.75639L6.09153 5.48972C6.45934 5.10584 6.66506 4.59497 6.66593 4.06333C6.6668 3.53168 6.46275 3.02014 6.0962 2.63506C6.0962 2.63506 4.86086 1.03306 4.8402 1.01239C4.45983 0.629556 3.94412 0.411738 3.40448 0.406C2.86485 0.400262 2.34462 0.607064 1.9562 0.981724L1.18953 1.64839C-3.3398 6.90306 6.41353 16.5811 11.8415 16.4071C12.3897 16.4102 12.9329 16.3036 13.4391 16.0933C13.9453 15.8831 14.4042 15.5736 14.7889 15.1831Z" fill="black"/>
</g>
<defs>
<clipPath id="clip0_294_626">
<rect width="16" height="16" fill="white" transform="translate(0 0.407104)"/>
</clipPath>
</defs>
</svg>